<svg width="24" height="24" viewBox="0 0 24 24" fill="none" xmlns="http://www.w3.org/2000/svg">
<path d="M18.45 12.75C17.325 11.4 15.9 10.4625 14.325 9.97501C15.9 9.15001 16.95 7.50001 16.95 5.58751C16.95 2.85001 14.7375 0.600006 11.9625 0.600006C9.1875 0.600006 7.0125 2.88751 7.0125 5.62501C7.0125 7.50001 8.0625 9.15001 9.6375 10.0125C8.0625 10.5 6.675 11.4375 5.5125 12.7875C3.8625 14.7375 2.925 17.4375 2.8875 20.4C2.8875 20.7375 3.075 21.0375 3.3375 21.15C4.35 21.675 8.025 23.325 11.9625 23.325C16.2375 23.325 19.65 21.6375 20.625 21.1125C20.8875 20.9625 21.075 20.6625 21.075 20.3625C21.0375 17.4375 20.1 14.7375 18.45 12.75ZM12 2.36251C13.8 2.36251 15.3 3.82501 15.3 5.66251C15.3 7.50001 13.8375 8.96251 12 8.96251C10.1625 8.96251 8.7 7.50001 8.7 5.66251C8.7 3.82501 10.2 2.36251 12 2.36251ZM12 21.675C8.8875 21.675 5.85 20.475 4.6125 19.875C4.7625 17.5125 5.5125 15.4125 6.825 13.8375C8.175 12.225 10.0125 11.325 12 11.325C13.9875 11.325 15.825 12.225 17.175 13.8375C18.4875 15.375 19.275 17.5125 19.3875 19.875C18.225 20.475 15.375 21.675 12 21.675Z" fill="black"/>
</svg>
